<svg width="23" height="22" viewBox="0 0 23 22" fill="none" xmlns="http://www.w3.org/2000/svg">
<path d="M17.8639 10.1924V9.6267C17.8639 9.54205 17.8639 9.49973 17.8634 9.46393C17.8247 6.75855 15.6409 4.57479 12.9355 4.53605C12.8997 4.53553 12.8574 4.53553 12.7728 4.53553H12.2071M21.3996 10.8995V9.90954C21.3996 9.0649 21.3996 8.64258 21.3677 8.28659C21.0226 4.43191 17.9677 1.37699 14.113 1.03187C13.757 1 13.3347 0.999999 12.49 1L11.5001 1M8.27785 8.22339C7.82461 9.26317 8.054 10.4744 8.85605 11.2765L11.2529 13.6733C12.0549 14.4753 13.2661 14.7047 14.3059 14.2515C15.3457 13.7982 16.557 14.0276 17.359 14.8297L18.8172 16.2879C18.8878 16.3585 18.9232 16.3938 18.9518 16.425C19.6548 17.1901 19.6548 18.3662 18.9518 19.1314C18.9232 19.1625 18.8878 19.1978 18.8172 19.2685L17.9309 20.1548C17.2091 20.8766 16.1685 21.1796 15.1721 20.9582C8.38248 19.4494 3.07995 14.1468 1.57115 7.35725C1.34971 6.36079 1.65272 5.32026 2.37451 4.59846L3.26085 3.71212C3.3315 3.64147 3.36682 3.60615 3.39794 3.57756C4.1631 2.87448 5.33921 2.87448 6.10436 3.57756C6.13548 3.60615 6.17081 3.64147 6.24145 3.71212L7.69965 5.17032C8.5017 5.97237 8.73109 7.18361 8.27785 8.22339Z" stroke="white" stroke-width="1.5" stroke-linecap="round"/>
</svg>
