<svg width="15" height="17" viewBox="0 0 15 17" fill="none" xmlns="http://www.w3.org/2000/svg">
<path d="M6.48759 0.0236441C7.0559 -0.0137233 7.62422 0.00015608 8.19254 0.0179501C8.96491 0.0410823 9.73728 0.130052 10.4928 0.304433C11.1977 0.468138 11.8908 0.713695 12.5266 1.07847C12.9937 1.34182 13.4187 1.69948 13.7425 2.14433C14.1793 2.73865 14.4575 3.44507 14.6481 4.16395C14.9668 5.41665 15.0326 6.72629 14.9871 8.01813C14.9651 8.63025 14.9145 9.24058 14.8471 9.84914C14.7493 10.7104 14.525 11.5663 14.1034 12.3172C13.8378 12.7918 13.492 13.2109 13.0831 13.5538C12.7711 13.8172 12.4187 14.0272 12.0527 14.1926C11.6328 14.3777 11.191 14.4916 10.7525 14.6144C9.65128 14.8866 8.51464 14.9916 7.38475 14.9827C7.01206 14.9774 6.63936 14.9614 6.26667 14.9275C5.89903 15.3795 5.52803 15.8279 5.15364 16.2728C5.01367 16.4329 4.88551 16.6073 4.73204 16.7532C4.60388 16.8724 4.45379 16.981 4.28009 16.997C4.07941 17.0183 3.86186 16.9258 3.76068 16.7354C3.62408 16.4827 3.61902 16.1838 3.62239 15.9027C3.61902 15.4222 3.6342 14.9418 3.62914 14.4613C3.63082 14.4293 3.60215 14.4097 3.57686 14.4044C2.95795 14.2122 2.36602 13.9026 1.86853 13.4649C1.45819 13.101 1.11465 12.6607 0.855006 12.1659C0.472192 11.4488 0.254647 10.6463 0.136599 9.83846C0.106243 9.62493 0.0775744 9.40962 0.0640832 9.19432C0.0472192 8.93274 0.0202367 8.67295 0.0168639 8.41138C0.0134911 8.19785 0.00843201 7.98432 0 7.7708C0.00674561 6.87398 0.0236095 5.97538 0.156835 5.08924C0.25296 4.43264 0.411482 3.78494 0.669502 3.17816C0.876929 2.69239 1.15013 2.23508 1.49584 1.84361C1.63918 1.67813 1.80445 1.53756 1.97478 1.40588C2.5802 0.943238 3.28342 0.646078 4.00014 0.43255C4.8113 0.19589 5.64945 0.0734673 6.48759 0.0236441ZM5.00355 1.42047C4.34923 1.5646 3.70165 1.77991 3.11984 2.13223C2.81292 2.32441 2.5178 2.54861 2.28845 2.83865C1.91913 3.29596 1.65773 3.84402 1.49078 4.41698C1.25974 5.2017 1.18048 6.02556 1.15519 6.84408C1.13663 7.89037 1.10291 8.94911 1.30359 9.97939C1.41826 10.5808 1.61389 11.1716 1.92924 11.6894C2.2589 12.2323 2.71767 12.6745 3.25981 12.972C3.51615 13.1161 3.79103 13.2193 4.06929 13.3083C4.07941 13.5254 4.07097 13.7442 4.07266 13.9613C4.07603 14.6784 4.05411 15.3973 4.06591 16.1144C4.0676 16.2016 4.06086 16.2941 4.10302 16.3724C4.11249 16.3954 4.12803 16.4149 4.14776 16.4288C4.1675 16.4427 4.1906 16.4503 4.21432 16.4507C4.28346 16.4507 4.34417 16.4044 4.39308 16.3564C4.46222 16.287 4.5263 16.2105 4.5887 16.1375C5.21435 15.3955 5.80628 14.6215 6.41001 13.8581C6.44711 13.8136 6.47747 13.7585 6.52469 13.7247C6.59552 13.7211 6.66635 13.73 6.73717 13.7336C8.07955 13.7941 9.4371 13.6731 10.7356 13.3012C10.9768 13.2371 11.2179 13.1731 11.449 13.0752C11.9161 12.8812 12.3478 12.5859 12.6885 12.1944C13.0764 11.7567 13.3428 11.2139 13.5148 10.6463C13.7003 10.036 13.7627 9.39361 13.8133 8.75836C13.8712 8.06855 13.887 7.37553 13.8605 6.68358C13.8184 5.81701 13.7104 4.94511 13.4356 4.12481C13.2517 3.58031 12.9954 3.04827 12.6042 2.63723C12.3967 2.41302 12.1438 2.24398 11.8824 2.09807C11.3377 1.80269 10.7508 1.6034 10.1538 1.46638C9.37808 1.29022 8.5821 1.21727 7.78949 1.21015C6.85691 1.16958 5.91758 1.22474 5.00355 1.42047Z" fill="#7B32D8"/>
<path d="M7.3544 3.04293C7.56014 3.03047 7.76757 3.05361 7.97162 3.07852C8.59222 3.16393 9.19932 3.38635 9.72042 3.75291C10.2314 4.10701 10.6513 4.59991 10.9481 5.1622C11.336 5.90065 11.5148 6.7512 11.5249 7.59108C11.5232 7.65691 11.5333 7.72809 11.4962 7.78681C11.4287 7.89713 11.2635 7.91849 11.1741 7.82596C11.1168 7.7708 11.1151 7.68538 11.1134 7.61065C11.105 6.86508 10.9582 6.11239 10.6277 5.45046C10.351 4.88963 9.93774 4.4167 9.43036 4.08032C8.84518 3.69241 8.15544 3.4949 7.46739 3.48244C7.39487 3.47888 7.30887 3.48422 7.25321 3.42372C7.14191 3.30984 7.1925 3.06464 7.3544 3.04293Z" fill="#7B32D8"/>
<path d="M4.5887 3.54116C4.78601 3.48956 5.00018 3.58031 5.12666 3.74223C5.42178 4.12481 5.71859 4.5056 5.95637 4.93087C6.04912 5.1017 6.1638 5.26184 6.21776 5.45224C6.27679 5.68356 6.23294 5.95759 6.06599 6.12841C5.93613 6.25297 5.79279 6.36151 5.65956 6.48251C5.53308 6.59461 5.48586 6.78145 5.50779 6.94871C5.52634 7.05192 5.56681 7.14801 5.60223 7.24409C5.82483 7.84731 6.16211 8.40604 6.60732 8.85267C7.00872 9.25665 7.49719 9.55161 8.03065 9.71212C8.20434 9.76016 8.40503 9.70322 8.5197 9.55553C8.631 9.4114 8.73219 9.25837 8.84855 9.11958C8.9784 8.96833 9.18414 8.91317 9.37302 8.9363C9.50119 8.94876 9.61924 9.0146 9.72716 9.08399C10.1555 9.36158 10.5737 9.66408 10.9498 10.0182C11.0577 10.1249 11.1842 10.2246 11.2314 10.3794C11.3073 10.5911 11.2365 10.8242 11.1319 11.0093C10.9734 11.2833 10.7829 11.5396 10.5501 11.7495C10.3478 11.9275 10.0999 12.0752 9.82835 12.0752C9.6479 12.0841 9.48432 11.9969 9.31906 11.9346C8.70183 11.6801 8.12002 11.3438 7.55508 10.9844C7.03398 10.6516 6.53312 10.2833 6.08117 9.85269C5.22279 9.03951 4.5516 8.02703 4.02881 6.94693C3.77585 6.4398 3.5347 5.922 3.35594 5.37928C3.28096 5.13877 3.29605 4.8771 3.3981 4.64795C3.54819 4.30097 3.81295 4.02872 4.10133 3.80629C4.24973 3.69633 4.40657 3.58244 4.5887 3.54116Z" fill="#7B32D8"/>
<path d="M7.67482 4.16253C7.74902 4.14295 7.82828 4.16075 7.90417 4.16609C8.50453 4.2337 9.10151 4.46147 9.56021 4.88496C9.91267 5.20348 10.1741 5.63053 10.3191 6.09496C10.44 6.47322 10.4898 6.87274 10.4658 7.27114C10.4574 7.42951 10.2516 7.49357 10.1437 7.40104C10.0644 7.34588 10.0611 7.23555 10.0628 7.14658C10.0695 6.51845 9.87894 5.87253 9.47252 5.40277C9.07116 4.94191 8.49609 4.68211 7.9126 4.61094C7.81816 4.59492 7.71529 4.60382 7.62928 4.55578C7.49606 4.46645 7.52304 4.21413 7.67482 4.16253Z" fill="#7B32D8"/>
<path d="M7.97837 5.31736C8.05088 5.29423 8.12846 5.31024 8.20266 5.31736C8.51464 5.35651 8.83 5.47928 9.05429 5.72128C9.33423 6.02556 9.44891 6.46329 9.44891 6.87967C9.45228 6.97754 9.37134 7.05583 9.28533 7.07185C9.1892 7.09498 9.0779 7.03626 9.05429 6.93127C9.03068 6.82629 9.03743 6.71775 9.01719 6.61276C8.97503 6.35119 8.86204 6.08606 8.64787 5.93481C8.4573 5.79246 8.21952 5.76399 7.99354 5.73552C7.80635 5.69993 7.79961 5.37252 7.97837 5.31736Z" fill="#7B32D8"/>
</svg>
