<svg width="16" height="16" viewBox="0 0 16 16" fill="none" xmlns="http://www.w3.org/2000/svg">
<path d="M6.2949 0.213588C7.32982 -0.0363163 8.41505 -0.0614742 9.46507 0.109601C10.1409 0.219682 10.7988 0.420526 11.4208 0.706687C11.9978 0.973534 12.5398 1.31039 13.0344 1.70966C13.5168 2.0908 13.9541 2.52578 14.3377 3.00614C14.724 3.49248 15.0475 4.02556 15.3005 4.59278C15.5922 5.25166 15.7969 5.9457 15.9094 6.65742C15.9765 7.13039 16.0167 7.61008 15.9933 8.08808C15.958 8.92501 15.802 9.76026 15.5052 10.5435C15.0573 11.7276 14.3193 12.8027 13.3666 13.6363C12.8805 14.0616 12.3456 14.4275 11.7731 14.7265C11.0326 15.1124 10.2345 15.3758 9.40971 15.5064C8.38151 15.6758 7.31975 15.6338 6.30496 15.4007C5.69054 15.2611 5.09683 15.0424 4.53873 14.7499C4.47499 14.7181 4.41293 14.6762 4.33913 14.6678C4.27203 14.6594 4.20662 14.6778 4.14456 14.6996C2.85468 15.1105 1.56481 15.5192 0.274941 15.9257C0.182687 15.9475 0.0988205 16.0062 0.00153503 15.9995C-0.00306792 15.9612 0.00272611 15.9224 0.0183084 15.8871C0.466157 14.5755 0.903942 13.2589 1.35682 11.9457C1.38869 11.8702 1.36856 11.7863 1.32663 11.7209C0.984198 11.1427 0.721284 10.521 0.544992 9.87263C0.325261 9.06421 0.226298 8.2189 0.271586 7.38197C0.354181 5.97255 0.816703 4.61176 1.6101 3.44389C2.2911 2.45434 3.19351 1.61573 4.24184 1.02703C4.88533 0.662361 5.57626 0.388609 6.2949 0.213588ZM7.49587 1.3457C7.18724 1.37757 6.87694 1.41782 6.57669 1.50336C5.73802 1.72308 4.92955 2.07864 4.22842 2.59019C3.76985 2.9255 3.35954 3.32224 3.009 3.76927C2.63998 4.23889 2.33806 4.75882 2.09653 5.30391C1.8102 5.95064 1.63987 6.64269 1.59333 7.34843C1.54392 8.1436 1.63766 8.94118 1.87009 9.70323C2.06452 10.3341 2.35656 10.9305 2.73559 11.471C2.77417 11.5264 2.8094 11.5884 2.80772 11.6589C2.80436 11.7394 2.76746 11.8132 2.74398 11.8903C2.61147 12.2794 2.47896 12.6669 2.34813 13.056C2.24581 13.3461 2.15691 13.6396 2.04956 13.9281C2.0395 13.9516 2.04956 13.9751 2.05292 13.9986C2.10995 14.0137 2.16027 13.9751 2.21394 13.96C2.82114 13.7671 3.42833 13.5776 4.03385 13.378C4.15462 13.3411 4.27036 13.2925 4.39448 13.2656C4.51357 13.2405 4.63434 13.2841 4.73498 13.3461C5.42101 13.7554 6.17413 14.0573 6.9608 14.2015C8.07959 14.4112 9.24533 14.2904 10.3172 13.9248C11.1817 13.6295 11.9712 13.1487 12.6302 12.5159C13.2709 11.902 13.801 11.1658 14.1549 10.3506C14.5759 9.37785 14.7369 8.30109 14.6514 7.24612C14.5524 6.03686 14.0861 4.86784 13.3582 3.90009C12.6705 2.98937 11.7345 2.27488 10.6878 1.82371C9.97857 1.52506 9.22103 1.35742 8.45195 1.32893C8.13326 1.32055 7.81289 1.31216 7.49587 1.3457Z" fill="#0E972C"/>
<path d="M5.38914 3.98731C5.55016 3.96047 5.70783 4.02085 5.86886 4.00743C5.94769 4.0024 6.03156 4.00576 6.10201 4.04433C6.20097 4.09465 6.26639 4.19193 6.30496 4.29256C6.49283 4.7823 6.67566 5.27372 6.86184 5.76515C6.89539 5.86578 6.95242 5.96473 6.94403 6.07375C6.939 6.16264 6.89203 6.2398 6.8501 6.31527C6.74107 6.50144 6.59347 6.66077 6.44251 6.8134C6.37206 6.88888 6.28987 6.95596 6.2429 7.04989C6.20265 7.13375 6.24626 7.22432 6.28651 7.29811C6.55992 7.79792 6.89539 8.26586 7.3013 8.66504C7.67948 9.0396 8.11488 9.35155 8.59118 9.58918C8.69517 9.64285 8.80587 9.6831 8.90484 9.74516C8.97528 9.78541 9.0558 9.82064 9.13966 9.81728C9.2137 9.81166 9.28302 9.77879 9.33423 9.72503C9.57074 9.49022 9.78712 9.23697 9.99678 8.97868C10.0505 8.91662 10.1058 8.84786 10.1846 8.81934C10.2719 8.79083 10.3608 8.82941 10.4413 8.86295C10.978 9.10782 11.4913 9.39966 12.0113 9.6764C12.0784 9.71162 12.1471 9.75355 12.184 9.82231C12.2276 9.90282 12.226 9.99674 12.2209 10.084C12.1991 10.3758 12.1119 10.6659 11.9442 10.9075C11.7865 11.1356 11.5651 11.315 11.3185 11.4391C11.0652 11.5666 10.7902 11.6454 10.51 11.689C10.3179 11.7187 10.1221 11.7147 9.93137 11.6773C9.76196 11.6454 9.59925 11.5851 9.43655 11.5331C8.80587 11.3268 8.18358 11.0802 7.61496 10.7364C7.16151 10.4593 6.74211 10.13 6.36535 9.75523C5.93092 9.32754 5.55352 8.84618 5.20463 8.34972C4.9981 8.05295 4.80718 7.7456 4.63266 7.42894C4.50739 7.20963 4.40778 6.97665 4.33577 6.73457C4.26365 6.49305 4.20662 6.24483 4.19488 5.99325C4.18649 5.51524 4.319 5.02885 4.59576 4.63639C4.71456 4.46733 4.85434 4.31404 5.01174 4.18018C5.11741 4.08123 5.24657 4.00861 5.38914 3.98731Z" fill="#0E972C"/>
</svg>
