<svg width="34" height="34" viewBox="0 0 34 34" fill="none" xmlns="http://www.w3.org/2000/svg">
<rect width="34" height="34" rx="17" fill="#C91ECC"/>
<path d="M13.4593 17C13.4593 15.0441 15.0445 13.4581 17.0004 13.4581C18.9564 13.4581 20.5424 15.0441 20.5424 17C20.5424 18.9559 18.9564 20.542 17.0004 20.542C15.0445 20.542 13.4593 18.9559 13.4593 17ZM11.5446 17C11.5446 20.0133 13.9872 22.4558 17.0004 22.4558C20.0137 22.4558 22.4562 20.0133 22.4562 17C22.4562 13.9868 20.0137 11.5442 17.0004 11.5442C13.9872 11.5442 11.5446 13.9868 11.5446 17ZM21.3972 11.3279C21.3971 11.58 21.4718 11.8266 21.6118 12.0363C21.7518 12.246 21.9509 12.4095 22.1838 12.5061C22.4168 12.6027 22.6731 12.6281 22.9205 12.579C23.1678 12.5299 23.395 12.4085 23.5734 12.2303C23.7518 12.0521 23.8733 11.8249 23.9226 11.5776C23.9719 11.3303 23.9468 11.0739 23.8504 10.8409C23.754 10.6079 23.5906 10.4087 23.381 10.2685C23.1714 10.1284 22.9249 10.0535 22.6727 10.0534H22.6722C22.3342 10.0535 22.0101 10.1878 21.771 10.4268C21.532 10.6658 21.3975 10.9899 21.3972 11.3279ZM12.7079 25.6485C11.672 25.6013 11.109 25.4288 10.7348 25.283C10.2388 25.0899 9.88482 24.8599 9.51269 24.4882C9.14056 24.1166 8.91021 23.763 8.71794 23.267C8.57208 22.893 8.39953 22.3298 8.35244 21.2939C8.30093 20.1739 8.29065 19.8375 8.29065 17.0001C8.29065 14.1627 8.30178 13.8272 8.35244 12.7063C8.39962 11.6704 8.57344 11.1083 8.71794 10.7332C8.91106 10.2371 9.14107 9.88321 9.51269 9.51108C9.88431 9.13895 10.2379 8.9086 10.7348 8.71633C11.1088 8.57047 11.672 8.39792 12.7079 8.35083C13.8279 8.29932 14.1643 8.28903 17.0004 8.28903C19.8365 8.28903 20.1733 8.30017 21.2942 8.35083C22.3301 8.398 22.8922 8.57183 23.2673 8.71633C23.7634 8.9086 24.1173 9.13946 24.4894 9.51108C24.8616 9.8827 25.0911 10.2371 25.2842 10.7332C25.43 11.1072 25.6026 11.6704 25.6497 12.7063C25.7012 13.8272 25.7115 14.1627 25.7115 17.0001C25.7115 19.8375 25.7012 20.173 25.6497 21.2939C25.6025 22.3298 25.4291 22.8928 25.2842 23.267C25.0911 23.763 24.8611 24.117 24.4894 24.4882C24.1178 24.8595 23.7634 25.0899 23.2673 25.283C22.8933 25.4289 22.3301 25.6014 21.2942 25.6485C20.1742 25.7 19.8378 25.7103 17.0004 25.7103C14.163 25.7103 13.8275 25.7 12.7079 25.6485ZM12.62 6.43935C11.4889 6.49086 10.716 6.6702 10.041 6.93286C9.34193 7.20409 8.75016 7.56798 8.15881 8.15839C7.56747 8.7488 7.20452 9.3415 6.93328 10.0405C6.67063 10.716 6.49128 11.4884 6.43977 12.6195C6.38741 13.7524 6.37543 14.1146 6.37543 17C6.37543 19.8854 6.38741 20.2476 6.43977 21.3805C6.49128 22.5117 6.67063 23.2841 6.93328 23.9595C7.20452 24.6581 7.56755 25.2515 8.15881 25.8416C8.75007 26.4318 9.34193 26.7951 10.041 27.0671C10.7172 27.3298 11.4889 27.5091 12.62 27.5607C13.7534 27.6122 14.115 27.625 17.0004 27.625C19.8858 27.625 20.248 27.613 21.3809 27.5607C22.5121 27.5091 23.2845 27.3298 23.9599 27.0671C24.6585 26.7951 25.2507 26.432 25.842 25.8416C26.4334 25.2512 26.7956 24.6581 27.0676 23.9595C27.3302 23.2841 27.5104 22.5116 27.5611 21.3805C27.6126 20.2467 27.6246 19.8854 27.6246 17C27.6246 14.1146 27.6126 13.7524 27.5611 12.6195C27.5096 11.4883 27.3302 10.7155 27.0676 10.0405C26.7956 9.34193 26.4325 8.74973 25.842 8.15839C25.2516 7.56704 24.6585 7.20409 23.9607 6.93286C23.2845 6.6702 22.512 6.49001 21.3818 6.43935C20.2489 6.38784 19.8867 6.375 17.0013 6.375C14.1159 6.375 13.7534 6.38699 12.62 6.43935Z" fill="white"/>
</svg>
