<svg width="34" height="34" viewBox="0 0 34 34" fill="none" xmlns="http://www.w3.org/2000/svg">
<rect width="34" height="34" rx="17" fill="#FF0000"/>
<path fill-rule="evenodd" clip-rule="evenodd" d="M25.3144 10.0157C26.2246 10.2607 26.9423 10.9784 27.1873 11.8886C27.6424 13.5515 27.6249 17.0173 27.6249 17.0173C27.6249 17.0173 27.6249 20.4656 27.1873 22.1285C26.9423 23.0387 26.2246 23.7563 25.3144 24.0014C23.6515 24.439 17 24.439 17 24.439C17 24.439 10.3659 24.439 8.68553 23.9839C7.77532 23.7388 7.05766 23.0212 6.8126 22.1109C6.375 20.4656 6.375 16.9998 6.375 16.9998C6.375 16.9998 6.375 13.5515 6.8126 11.8886C7.05766 10.9784 7.79283 10.2432 8.68553 9.99815C10.3484 9.56055 17 9.56055 17 9.56055C17 9.56055 23.6515 9.56055 25.3144 10.0157ZM20.4132 17.0002L14.882 20.1859V13.8145L20.4132 17.0002Z" fill="white"/>
</svg>
