<svg viewBox="0 0 50 50" fill="none" xmlns="http://www.w3.org/2000/svg">
<path d="M4.15332 10.9833C5.02344 10.0263 6.34278 9.59852 7.61133 9.60341C15.2646 9.60243 22.917 9.60243 30.5693 9.60243C30.8457 9.57118 31.1572 9.75184 31.1426 10.0585C31.1748 11.6395 31.124 13.2225 31.166 14.8036C32.1709 14.7929 33.1748 14.8016 34.1797 14.7968C34.8271 14.7899 35.4824 14.8593 36.0957 15.078C37.125 15.4432 38.0166 16.1151 38.79 16.8729C40.4531 18.4638 41.8066 20.3378 43.1094 22.2245C44.2939 23.9696 45.4336 25.7518 46.3711 27.6434C46.665 28.2567 46.9648 28.8778 47.1123 29.5468C47.2197 29.9931 47.0859 30.4442 46.9951 30.8807C46.542 32.8182 45.8623 34.6933 45.125 36.539C45.0635 36.7206 44.9209 36.8876 44.7139 36.8866C43.4951 36.9384 42.2715 36.8573 41.0527 36.9247C40.8848 38.039 40.2559 39.0858 39.3037 39.7001C38.2383 40.4188 36.8125 40.5409 35.6309 40.0487C34.8682 39.7391 34.2148 39.1786 33.7832 38.4794C33.1523 37.4559 33.0273 36.1425 33.4473 35.0165C33.7627 34.1532 34.3945 33.4071 35.1982 32.9579C36.165 32.41 37.3701 32.2997 38.4209 32.664C39.8281 33.1259 40.8525 34.4423 41.0615 35.8954C42.0244 35.9052 42.9883 35.8925 43.9512 35.9022C44.1162 35.8905 44.3701 35.9501 44.416 35.7274C45.0898 34.0809 45.665 32.3895 46.0635 30.6552C46.1436 30.2616 46.2607 29.8466 46.126 29.452C45.9453 28.8876 45.6758 28.3583 45.4121 27.83C44.4922 26.0634 43.4258 24.3768 42.3135 22.7255C40.9639 20.7655 39.5615 18.7987 37.7305 17.2538C36.8486 16.497 35.7666 15.8749 34.5762 15.8563C33.3359 15.8466 32.0957 15.8554 30.8564 15.8554C30.6436 15.8427 30.3721 15.8573 30.2383 15.6561C30.1328 15.4706 30.1572 15.245 30.1465 15.0399C30.1514 13.579 30.1514 12.1181 30.1484 10.6571C22.7021 10.6366 15.2559 10.6561 7.80957 10.6474C6.84082 10.6298 5.82129 10.8671 5.08985 11.537C4.10449 12.4413 3.75488 13.8349 3.75098 15.1317C3.75 19.2216 3.74805 23.3104 3.75196 27.4003C12.5498 27.4061 21.3467 27.4003 30.1445 27.4032C30.1562 24.8114 30.1465 22.2196 30.1494 19.6288C30.1562 19.2763 30.1182 18.9198 30.1826 18.5722C30.2832 18.1366 31.0234 18.1483 31.1211 18.5809C31.1836 18.9589 31.1455 19.3446 31.1523 19.7265C31.1504 22.3651 31.1494 25.0048 31.1543 27.6434C31.1582 27.8661 31.125 28.1474 30.8896 28.247C30.5645 28.3436 30.2168 28.2899 29.8818 28.3016C21.5488 28.2987 13.2158 28.3016 4.88184 28.2997C4.50391 28.2958 4.125 28.2919 3.74707 28.3251C3.75586 30.0507 3.74317 31.7772 3.75391 33.5028C3.76465 34.2186 3.87891 35.0819 4.55371 35.4843C5.51172 36.0067 6.64258 35.7655 7.67969 35.8827C8.13477 35.9979 8.09375 36.786 7.61328 36.828C7.03027 36.8778 6.44141 36.8475 5.85742 36.8192C4.97949 36.7577 4.01367 36.5458 3.42969 35.83C2.84082 35.0966 2.75293 34.1112 2.75098 33.205C2.75 27.1483 2.74805 21.0917 2.75196 15.035C2.75781 13.5858 3.14356 12.0663 4.15332 10.9833ZM36.5557 33.5253C35.1113 33.8388 34.043 35.3397 34.2793 36.8114C34.4648 38.3602 36.0342 39.5653 37.5801 39.3251C39.1045 39.16 40.3144 37.6532 40.1328 36.1278C40.0117 34.4325 38.2148 33.0956 36.5557 33.5253Z" fill="#E96315"/>
<path d="M17.2047 13.1128C17.3678 12.7652 17.9391 12.7779 18.108 13.1158C18.1744 13.3404 18.1412 13.5796 18.1686 13.8101C18.4615 13.9693 18.8092 14.0083 19.0944 14.189C19.6569 14.521 20.1627 15.0396 20.3248 15.6861C20.3942 16.1714 19.6705 16.4566 19.4254 16.0074C19.1403 15.4917 18.7262 14.9956 18.1217 14.8638C17.2233 14.5982 16.2311 15.231 16.0094 16.1216C15.8649 16.691 15.9684 17.4253 16.528 17.7368C17.5114 18.2935 18.6852 18.4683 19.608 19.1441C20.5856 19.9087 20.611 21.4429 19.9625 22.4283C19.5485 23.1021 18.819 23.5132 18.0592 23.6734C18.0397 23.9478 18.1168 24.2632 17.9488 24.5054C17.7477 24.8052 17.1969 24.7583 17.0914 24.3999C17.0367 24.148 17.0504 23.8872 17.0153 23.6333C16.1608 23.44 15.4225 22.8003 15.1032 21.9868C14.9664 21.6548 15.3014 21.2642 15.651 21.3355C15.942 21.3618 16.0406 21.6773 16.1881 21.8814C16.6158 22.6177 17.611 22.9751 18.3932 22.607C19.2526 22.2486 19.6969 21.1558 19.3229 20.3033C19.0133 19.7183 18.316 19.5601 17.7506 19.3316C17.0172 19.024 16.2008 18.8199 15.6139 18.2535C15.0114 17.6695 14.9039 16.7456 15.0709 15.9595C15.2955 14.9507 16.1412 14.1431 17.1393 13.9048C17.1578 13.6421 17.1149 13.3658 17.2047 13.1128Z" fill="#E96315"/>
<path d="M11.2148 33.2821C12.2373 32.4735 13.6729 32.2372 14.9053 32.6542C16.2568 33.0897 17.2725 34.3036 17.5566 35.6835C21.5674 35.7147 25.5791 35.6874 29.5898 35.6971C30.0068 35.7089 30.4307 35.6581 30.8428 35.7343C31.3379 35.8856 31.1963 36.745 30.6621 36.6923C26.3105 36.7167 21.957 36.6757 17.6064 36.7128C17.5059 37.8055 16.9609 38.8534 16.084 39.5214C15.1182 40.2782 13.7939 40.5282 12.6123 40.2118C11.458 39.91 10.4658 39.0507 10.0117 37.9462C9.31641 36.3534 9.82031 34.3309 11.2148 33.2821ZM12.9268 33.5438C12.4844 33.662 12.0693 33.8846 11.7246 34.1864C10.7646 34.994 10.418 36.4442 10.9541 37.5858C11.4609 38.7968 12.8496 39.5487 14.1416 39.3055C15.2676 39.1122 16.2285 38.2157 16.5088 37.1102C16.7168 36.3221 16.5537 35.454 16.0967 34.7821C15.4365 33.7606 14.1094 33.2176 12.9268 33.5438Z" fill="#E96315"/>
</svg>
