<svg width="89" height="28" viewBox="0 0 89 28" fill="none" xmlns="http://www.w3.org/2000/svg">
<g clip-path="url(#clip0_1_357)">
<path d="M67.373 11.1705C65.2815 10.4484 64.6288 10.0211 64.6288 9.24C64.6288 8.37053 65.3557 7.85474 66.6462 7.85474C67.6993 7.85474 68.7525 8.14947 69.5387 8.45895L69.8798 4.68632C68.9157 4.42105 67.7438 4.21474 66.4682 4.21474C62.2407 4.21474 59.5262 6.60211 59.5262 9.75579C59.4965 11.76 60.8463 13.6611 64.3767 14.8547C66.3643 15.5179 66.8835 15.9305 66.8835 16.7853C66.8835 17.6547 66.216 18.2 64.614 18.2C63.0565 18.2 61.0392 17.5074 60.0453 16.9179L59.1108 20.6905C60.4013 21.3832 62.3742 21.8695 64.6288 21.8695C69.5238 21.8695 72.0158 19.5558 72.0158 16.3874C71.9862 13.8968 70.6363 12.2758 67.373 11.1705ZM80.2038 17.5811C78.6018 17.5811 78.1123 16.6526 78.1123 14.6042V0L72.9207 1.17895V4.58316H70.9478L70.5918 8.45895H72.9355V15.3705C72.9355 17.7579 73.425 19.3789 74.404 20.3958C75.2347 21.2653 76.6587 21.8547 78.3645 21.8547C79.8627 21.8547 81.1087 21.6779 81.8058 21.3979L81.7762 17.4189C81.3905 17.4926 80.8713 17.5663 80.2038 17.5811ZM78.5277 8.47368H81.7762V4.58316H78.5277V8.47368ZM19.6542 13.3516C19.5503 10.7579 19.4613 7.61895 19.4613 4.48H19.3575C18.6603 7.23579 17.711 10.3158 16.8358 12.8358L14.0768 21.2653H10.0867L7.66883 12.8947C6.92717 10.36 6.15583 7.28 5.62183 4.46526H5.5625C5.429 7.36842 5.32517 10.7137 5.162 13.4105L4.7615 21.6042H0L1.43883 0.0147368H8.26217L10.4723 7.22105C11.1695 9.71158 11.8815 12.4232 12.3858 14.9432H12.4897C13.1275 12.4526 13.8988 9.57895 14.6405 7.19158L17.0583 0.0147368H23.7482L24.9942 21.6042H19.9805L19.6542 13.3516ZM47.7337 14.7368C47.9117 16.9179 50.0625 17.9495 52.5545 17.9495C54.3642 17.9495 55.8178 17.7137 57.2715 17.2568L57.9687 20.8232C56.2332 21.5158 54.112 21.8547 51.798 21.8547C46.013 21.8547 42.7052 18.5389 42.7052 13.2337C42.7052 8.94526 45.39 4.2 51.3085 4.2C56.8265 4.2 58.9032 8.44421 58.9032 12.6442C58.9032 13.5432 58.7993 14.3389 58.7252 14.7221L47.7337 14.7368ZM53.9785 11.1263C53.9785 9.84421 53.4148 7.70737 50.9822 7.70737C48.7572 7.70737 47.8523 9.71158 47.7188 11.1263H53.9785Z" fill="#0862AF"/>
<path d="M85.4103 0.0294852L89 6.52843L85.4103 13.0569H81.7762L85.3658 6.52843L81.7613 0.0294852H85.4103C85.4103 0.0147484 85.4103 0.0147484 85.4103 0.0294852ZM40.9845 28H26.3885V24.4042H40.9845V28ZM30.6754 14.7221C30.8534 16.9032 33.0042 17.9347 35.4962 17.9347C37.3059 17.9347 38.7595 17.699 40.2132 17.2421L40.9103 20.8084C39.1748 21.5011 37.0537 21.84 34.7397 21.84C28.9547 21.84 25.6469 18.5242 25.6469 13.219C25.6469 8.93054 28.3317 4.18527 34.2502 4.18527C39.7682 4.18527 41.8449 8.42948 41.8449 12.6295C41.8449 13.5284 41.741 14.3242 41.6668 14.7074H30.6754V14.7221ZM36.9202 11.1116C36.9202 9.82948 36.3565 7.69264 33.9239 7.69264C31.6989 7.69264 30.794 9.69685 30.6457 11.1116H36.9202Z" fill="#ED1C24"/>
</g>
<defs>
<clipPath id="clip0_1_357">
<rect width="89" height="28" fill="white"/>
</clipPath>
</defs>
</svg>
