<svg viewBox="0 0 50 50" fill="none" xmlns="http://www.w3.org/2000/svg">
<path d="M10.0029 4.56043C10.2783 4.50867 10.5596 4.49792 10.8398 4.495C15.9844 4.49695 21.1279 4.495 26.2725 4.49597C26.9482 4.48914 27.6367 4.63074 28.2207 4.98132C29.292 5.59656 30.0225 6.76941 30.0859 8.00476C30.0986 8.4198 30.1406 8.84265 30.0645 9.25281C29.9092 9.69324 29.21 9.60339 29.123 9.16492C29.0576 8.54285 29.1758 7.8905 28.9375 7.29285C28.5879 6.26257 27.5674 5.49304 26.4707 5.50183C21.1934 5.50085 15.916 5.50085 10.6387 5.50183C9.21582 5.48523 7.99219 6.7948 8.00488 8.19812C8 19.3983 8.00488 30.5975 8.00293 41.7977C7.98535 42.828 8.58789 43.8514 9.52832 44.2909C9.96191 44.5145 10.458 44.5595 10.9395 44.5536C16.1133 44.5477 21.2881 44.5585 26.4629 44.5477C27.5205 44.5565 28.501 43.828 28.8887 42.8602C29.0732 42.4335 29.1104 41.9628 29.1016 41.5028C29.0967 38.8319 29.1045 36.161 29.0977 33.4901C29.1016 33.2841 29.0986 33.0399 29.2773 32.8993C29.5254 32.7128 29.9824 32.7909 30.0674 33.121C30.1182 33.3729 30.1006 33.6317 30.1035 33.8866C30.0898 36.5897 30.1201 39.2929 30.0889 41.995C30.0488 43.8514 28.4336 45.5282 26.5586 45.5448C21.2559 45.5575 15.9512 45.5507 10.6484 45.5477C8.70215 45.578 7.00391 43.8163 7.00391 41.8905C6.99316 30.9218 7.00391 19.953 6.99902 8.98425C6.99316 8.32312 6.98047 7.64343 7.20703 7.0116C7.60449 5.76941 8.71582 4.78699 10.0029 4.56043Z" fill="#E96315"/>
<path d="M12.3516 7.37189C12.7695 7.21271 13.1904 7.7713 12.9043 8.12287C12.4697 8.62775 11.9668 9.07111 11.5029 9.54962C11.1973 9.83478 10.9297 10.1619 10.5996 10.4207C10.3164 10.6258 9.87208 10.3973 9.85938 10.0516C9.81934 9.81037 10.0117 9.63458 10.1641 9.48029C10.7705 8.88263 11.3711 8.27912 11.9688 7.67365C12.0859 7.56134 12.2012 7.43927 12.3516 7.37189Z" fill="#E96315"/>
<path d="M15.8672 7.34656C16.0771 7.36121 16.334 7.36121 16.459 7.56433C16.6123 7.78308 16.5469 8.08289 16.3486 8.24988C14.4951 10.1044 12.6396 11.9579 10.7861 13.8124C10.623 13.9882 10.3633 14.1278 10.1309 13.9921C9.80859 13.8495 9.76367 13.3768 10.04 13.1639C11.9844 11.2274 13.917 9.27722 15.8672 7.34656Z" fill="#E96315"/>
<path d="M32.0644 11.2607C34.0127 11.0458 36.0264 11.4159 37.7578 12.3398C39.96 13.495 41.6904 15.5195 42.4766 17.8798C43.1894 19.9618 43.168 22.2851 42.4228 24.3554C41.6172 26.6259 39.9424 28.5722 37.8213 29.7138C35.6797 30.8866 33.0898 31.203 30.7256 30.5966C28.5644 30.0595 26.6064 28.7529 25.2734 26.9687C23.9238 25.1894 23.2227 22.9374 23.3086 20.706C23.3672 18.4911 24.2256 16.3154 25.668 14.6366C27.2695 12.7538 29.6055 11.5195 32.0644 11.2607ZM32.0762 12.2695C29.0742 12.6249 26.3408 14.6445 25.126 17.413C24.1875 19.4833 24.0957 21.9169 24.8711 24.0527C25.4746 25.7431 26.6084 27.2362 28.0693 28.2763C29.4482 29.2607 31.1172 29.8378 32.8125 29.8886C34.6875 29.9745 36.5811 29.4277 38.1299 28.3691C40.0107 27.0995 41.3691 25.0771 41.8135 22.8505C42.1787 21.0956 41.998 19.2314 41.3037 17.58C40.4941 15.6464 38.9727 14.0136 37.084 13.0976C35.5439 12.3329 33.7793 12.0566 32.0762 12.2695Z" fill="#E96315"/>
<path d="M32.7021 15.407C32.8652 15.0594 33.4365 15.0721 33.6055 15.4099C33.6719 15.6346 33.6387 15.8738 33.666 16.1043C33.959 16.2635 34.3066 16.3025 34.5918 16.4832C35.1543 16.8152 35.6602 17.3338 35.8223 17.9803C35.8916 18.4656 35.168 18.7508 34.9228 18.3015C34.6377 17.7859 34.2236 17.2898 33.6191 17.158C32.7207 16.8924 31.7285 17.5252 31.5068 18.4158C31.3623 18.9851 31.4658 19.7195 32.0254 20.031C33.0088 20.5877 34.1826 20.7625 35.1055 21.4383C36.083 22.2029 36.1084 23.7371 35.46 24.7224C35.0459 25.3963 34.3164 25.8074 33.5566 25.9676C33.5371 26.242 33.6143 26.5574 33.4463 26.7996C33.2451 27.0994 32.6943 27.0525 32.5889 26.6941C32.5342 26.4422 32.5478 26.1814 32.5127 25.9275C31.6582 25.7342 30.9199 25.0945 30.6006 24.281C30.4639 23.949 30.7988 23.5584 31.1484 23.6297C31.4395 23.656 31.5381 23.9715 31.6855 24.1756C32.1133 24.9119 33.1084 25.2693 33.8906 24.9012C34.75 24.5428 35.1943 23.45 34.8203 22.5974C34.5107 22.0125 33.8135 21.8543 33.248 21.6258C32.5146 21.3181 31.6982 21.114 31.1113 20.5476C30.5088 19.9637 30.4014 19.0398 30.5684 18.2537C30.793 17.2449 31.6387 16.4373 32.6367 16.199C32.6553 15.9363 32.6123 15.6599 32.7021 15.407Z" fill="#E96315"/>
<path d="M10.1934 34.5242C10.4717 34.4763 10.7549 34.5017 11.0352 34.4988C16.2754 34.5046 21.5156 34.4929 26.7549 34.5037C27.1875 34.4695 27.3994 35.0378 27.1367 35.3435C27.0273 35.4919 26.832 35.5046 26.6641 35.5056C21.2578 35.5007 15.8516 35.5027 10.4453 35.5046C10.2998 35.4968 10.1348 35.4988 10.0215 35.3933C9.74121 35.1638 9.8164 34.6042 10.1934 34.5242Z" fill="#E96315"/>
<path d="M18.2051 38.54C18.9268 38.3496 19.7344 38.8037 19.9629 39.5107C20.2578 40.2793 19.7715 41.2168 18.9815 41.4336C18.1856 41.7031 17.251 41.1484 17.0908 40.3281C16.8897 39.5547 17.4346 38.7119 18.2051 38.54Z" fill="#E96315"/>
</svg>
