<svg width="24" height="24" viewBox="0 0 24 24" fill="none" xmlns="http://www.w3.org/2000/svg">
<path d="M12.0173 2.03877C12.1804 2.00127 12.3492 1.99752 12.5156 1.99658C15.1247 1.99799 17.7337 1.99564 20.3428 1.99799C20.7679 1.99377 21.1936 2.15549 21.4987 2.45408C21.8245 2.76252 22.0054 3.21018 21.9998 3.65736C22.0007 6.29736 21.9998 8.93737 21.9998 11.5774C22.012 12.0396 21.8156 12.4938 21.4832 12.8125C18.5081 15.79 15.5306 18.7656 12.5545 21.7422C12.3332 21.9625 12.1195 22.2035 11.8317 22.3385C11.2209 22.6497 10.4254 22.5128 9.95152 22.0183C7.37293 19.4402 4.79527 16.8616 2.21668 14.2835C2.04558 14.11 1.85902 13.9464 1.73199 13.736C1.4348 13.2578 1.4123 12.6231 1.67949 12.1277C1.81496 11.8567 2.04699 11.6561 2.25699 11.4447C5.23355 8.46815 8.21012 5.49205 11.1862 2.51502C11.4117 2.28299 11.7 2.10955 12.0173 2.03877ZM12.2043 3.02268C12.0825 3.05455 11.9817 3.13518 11.8926 3.22049C8.90949 6.20643 5.92308 9.18908 2.93902 12.1736C2.78808 12.333 2.59636 12.4722 2.5223 12.6874C2.44402 12.9147 2.51386 13.1772 2.68824 13.3417C5.34465 15.9981 8.00152 18.6555 10.6584 21.3119C10.8914 21.5678 11.3292 21.5692 11.5631 21.3147C14.6418 18.2364 17.7201 15.1572 20.7989 12.0789C20.9334 11.9505 21.0079 11.7677 21.0004 11.5816C20.999 8.93877 21 6.29596 21 3.65314C21.007 3.41221 20.8711 3.17033 20.6522 3.06533C20.4698 2.97299 20.2589 3.00252 20.0625 2.99736C17.5143 2.99924 14.9667 2.99783 12.419 2.9983C12.3468 3.00018 12.2737 3.00346 12.2043 3.02268Z" fill="#E96315"/>
<path d="M17.032 4.61455C17.489 4.52268 17.9765 4.59533 18.3848 4.81986C18.9417 5.11893 19.335 5.69877 19.4081 6.32643C19.4653 6.76659 19.3687 7.22549 19.1372 7.60471C18.8325 8.11846 18.285 8.48081 17.692 8.55581C17.0845 8.63878 16.4437 8.42409 16.0129 7.98721C15.3698 7.36612 15.239 6.29877 15.7148 5.54127C15.9993 5.0669 16.4887 4.72096 17.032 4.61455ZM17.2176 5.59612C16.7882 5.68049 16.4456 6.07752 16.4287 6.51534C16.4006 6.88893 16.6068 7.2644 16.9345 7.4444C17.3057 7.66377 17.8157 7.59534 18.1204 7.29206C18.3614 7.06237 18.472 6.70893 18.4073 6.38268C18.3168 5.84924 17.7445 5.46908 17.2176 5.59612Z" fill="#E96315"/>
</svg>
