<svg viewBox="0 0 50 50" fill="none" xmlns="http://www.w3.org/2000/svg">
<path d="M25.1115 6.49992C25.3919 6.30059 25.7183 6.47254 25.9592 6.64668C26.9318 7.31914 27.9098 7.98394 28.8857 8.65093C29.177 8.8415 29.4409 9.08574 29.7695 9.21278C31.3422 9.13721 32.9106 8.97074 34.4822 8.87326C34.7758 8.82726 35.0485 8.99921 35.1536 9.27302C35.7867 10.5785 36.4153 11.8873 37.0363 13.2005C37.1195 13.3604 37.194 13.551 37.3758 13.6243C38.7525 14.3012 40.1467 14.9441 41.5223 15.622C41.7961 15.7315 41.933 16.0262 41.8881 16.3109C41.7885 17.8092 41.6417 19.3042 41.5486 20.8035C41.5048 21.0302 41.6581 21.2131 41.7709 21.3927C42.5781 22.5548 43.37 23.7289 44.1739 24.8942C44.3611 25.1307 44.4126 25.4725 44.2188 25.7233C43.4543 26.8524 42.6876 27.9794 41.9089 29.0987C41.7622 29.3419 41.5114 29.5708 41.5486 29.8785C41.6384 31.4129 41.8027 32.9419 41.8892 34.4763C41.9319 34.8059 41.6538 35.0305 41.3821 35.1455C40.0755 35.7686 38.7711 36.3984 37.4645 37.0216C37.3178 37.0884 37.1776 37.1837 37.1152 37.3392C36.4898 38.6513 35.8535 39.959 35.2314 41.2732C35.1229 41.4736 35.0244 41.7299 34.7801 41.7956C34.5775 41.8395 34.3683 41.8121 34.1646 41.8022C32.7715 41.6861 31.3762 41.5941 29.9831 41.4835C29.7925 41.443 29.6184 41.5284 29.4683 41.6368C28.3479 42.4155 27.2165 43.18 26.0939 43.9554C25.9034 44.0781 25.7183 44.227 25.4937 44.2796C25.2703 44.3168 25.0776 44.1767 24.899 44.066C23.7096 43.2468 22.5169 42.4342 21.3264 41.6182C21.0592 41.3882 20.6967 41.5076 20.3813 41.5186C19.1316 41.6127 17.8809 41.7025 16.6323 41.8077C16.3147 41.8318 15.8832 41.8767 15.7266 41.5218C15.0289 40.1254 14.3751 38.706 13.6905 37.3019C13.6193 37.1212 13.4244 37.0555 13.2678 36.9701C12.0236 36.3929 10.7981 35.7774 9.55388 35.1991C9.32279 35.0797 9.02708 34.9735 8.9537 34.6931C8.91208 34.2211 8.99313 33.7479 9.01613 33.2759C9.11579 32.1456 9.19137 31.0121 9.27679 29.8807C9.31622 29.6431 9.14975 29.4547 9.03146 29.2696C8.22428 28.1054 7.43244 26.9302 6.62635 25.7649C6.45112 25.5447 6.4095 25.2238 6.58912 24.9927C7.4401 23.731 8.30862 22.4814 9.16508 21.223C9.31513 21.0368 9.28336 20.7926 9.26913 20.5713C9.15084 19.1475 9.02818 17.7238 8.94165 16.2978C8.90223 16.0262 9.01832 15.7425 9.28336 15.6352C10.6579 14.9638 12.0422 14.311 13.42 13.6451C13.6862 13.5411 13.7541 13.2421 13.8745 13.0143C14.4397 11.8238 15.0179 10.6388 15.5809 9.44716C15.7025 9.19197 15.8624 8.86122 16.1953 8.87436C17.8338 8.95102 19.47 9.14597 21.1074 9.20183C22.4655 8.33989 23.7589 7.37281 25.1115 6.49992ZM21.7788 10.1821C21.5893 10.3222 21.367 10.4274 21.1238 10.3978C19.6004 10.3233 18.0824 10.1163 16.5567 10.0824C15.9839 11.366 15.341 12.6167 14.7507 13.8916C14.6324 14.1205 14.5382 14.3954 14.2907 14.5169C12.9206 15.2091 11.5045 15.8159 10.1497 16.5365C10.211 17.9548 10.3424 19.3721 10.4574 20.7893C10.4772 21.0653 10.5002 21.3687 10.3194 21.603C9.5046 22.7957 8.68647 23.9884 7.87162 25.1822C7.69967 25.3542 7.90776 25.548 7.99429 25.7024C8.73466 26.7539 9.44327 27.8272 10.1814 28.8808C10.3118 29.0812 10.4804 29.2871 10.464 29.5423C10.3895 31.0789 10.2165 32.6122 10.1442 34.1488C11.4902 34.8837 12.9162 35.474 14.282 36.175C14.536 36.2911 14.6313 36.5681 14.7496 36.7992C15.3399 38.0719 15.9796 39.3215 16.5524 40.6018C18.1163 40.5942 19.6715 40.3467 21.2333 40.2941C21.4119 40.2788 21.5674 40.3719 21.7109 40.466C22.9441 41.3006 24.1576 42.1658 25.405 42.9763C26.704 42.1691 27.9383 41.2458 29.2186 40.4036C29.3489 40.316 29.5034 40.2788 29.66 40.2952C31.19 40.385 32.7167 40.5383 34.249 40.6227C34.8721 39.3062 35.5139 37.9985 36.1327 36.6799C36.2313 36.4652 36.3551 36.2429 36.5873 36.1509C37.55 35.6876 38.5127 35.2276 39.4743 34.7643C39.8718 34.5639 40.2979 34.4117 40.6659 34.1554C40.6253 32.6199 40.4392 31.0866 40.3559 29.5511C40.3351 29.3616 40.4392 29.1973 40.5366 29.0462C41.335 27.8721 42.1466 26.7068 42.9384 25.5283C43.1192 25.3366 42.9045 25.1242 42.8048 24.9544C42.0546 23.88 41.3285 22.7892 40.5782 21.7158C40.4632 21.5406 40.3285 21.3533 40.3581 21.1321C40.4326 19.6064 40.6188 18.0863 40.6856 16.5606C40.5728 16.4467 40.4216 16.3821 40.2814 16.3109C39.1117 15.7699 37.9596 15.1905 36.7921 14.6473C36.5829 14.5443 36.3419 14.4468 36.2423 14.2179C35.5621 12.8402 34.9181 11.4448 34.2391 10.0671C32.8219 10.1711 31.4058 10.2773 29.9896 10.388C29.7323 10.3912 29.4409 10.4526 29.2175 10.2883C27.9372 9.4384 26.6908 8.53703 25.4007 7.70247C24.1948 8.53046 22.9835 9.35078 21.7788 10.1821Z" fill="#E96315"/>
<path d="M26.0129 16.7106C26.3568 16.3426 26.8277 15.9955 27.3611 16.0721C28.1781 16.2068 28.8572 16.8804 29.0444 17.681C29.3139 18.7631 28.9995 19.8715 28.6589 20.8999C29.2701 20.9108 29.9042 20.8407 30.489 21.0609C31.4835 21.408 32.2348 22.3686 32.3126 23.4233C32.3531 25.3936 32.3126 27.3661 32.3312 29.3386C32.3378 29.9563 32.3016 30.6342 31.8953 31.1369C31.4222 31.736 30.6161 31.9277 29.8856 31.9255C27.9843 31.9222 26.083 31.9288 24.1817 31.9222C23.4851 31.92 22.8345 31.5969 22.3143 31.1501C21.8379 31.6517 21.1676 32.0109 20.4579 31.9353C19.4131 31.8729 18.515 30.9398 18.4986 29.8927C18.481 27.7735 18.5007 25.6531 18.4898 23.5339C18.4777 23.0421 18.5303 22.5263 18.8041 22.1046C19.2762 21.2974 20.3079 20.8845 21.2059 21.1551C21.6013 21.2449 21.9025 21.5274 22.2212 21.7585C23.1916 21.0236 23.9681 20.0379 24.5365 18.9635C24.9658 18.176 25.4017 17.3754 26.0129 16.7106ZM27.0041 17.3623C26.3633 18.003 25.9515 18.8277 25.5135 19.6108C24.9779 20.5965 24.2857 21.5011 23.4522 22.2525C23.1522 22.5427 22.7535 22.8483 22.7623 23.3083C22.7546 25.3202 22.7688 27.3321 22.7557 29.3429C22.6812 30.1578 23.5289 30.7788 24.2857 30.758C26.1147 30.7678 27.9438 30.7591 29.7728 30.7623C30.1616 30.747 30.6019 30.7481 30.914 30.4809C31.1659 30.2487 31.1582 29.8785 31.1648 29.5631C31.1538 27.5884 31.1681 25.6137 31.1571 23.639C31.1593 22.7957 30.397 22.0466 29.5515 22.0696C28.6359 22.0663 27.7214 22.0619 26.8058 22.0761C27.1552 21.292 27.6086 20.5483 27.8036 19.7028C27.9635 19.0194 28.1497 18.2089 27.7313 17.5824C27.5758 17.3776 27.2264 17.0972 27.0041 17.3623ZM20.3955 22.2711C19.9344 22.3762 19.6179 22.8439 19.6617 23.3115C19.6683 25.5042 19.6453 27.6968 19.6737 29.8884C19.6836 30.6714 20.7679 31.0712 21.2958 30.5028C21.7689 30.0833 21.4381 29.436 21.4819 28.9049C21.5104 26.9017 21.4305 24.8952 21.5301 22.8965C21.3954 22.4321 20.8599 22.144 20.3955 22.2711Z" fill="#E96315"/>
</svg>
