<svg width="39" height="41" viewBox="0 0 39 41" fill="none" xmlns="http://www.w3.org/2000/svg">
<path d="M13.3671 3.63762L0.686523 10.9583V16.6373L13.3671 9.31613L26.0472 16.6373V10.9583L13.3671 3.63762Z" fill="#E96315"/>
<path d="M25.8275 40.2204L13.1469 32.8997V27.2217L25.8275 34.5424L38.5076 27.2217V32.8997L25.8275 40.2204Z" fill="#E96315"/>
<path d="M0.686523 18.1623L13.3671 10.8412L18.2843 13.6804L5.60415 21.0016V35.6439L0.686523 32.8046V18.1623Z" fill="#E96315"/>
<path d="M32.2861 7.32068L19.6055 0L14.6879 2.83925L27.368 10.1599V24.8022L32.2861 21.963V7.32068Z" fill="#E96315"/>
<path d="M6.9516 36.4886L6.95207 21.8468L11.8697 19.0075V33.6498L24.5498 40.9705L19.6322 43.8103L6.9516 36.4886Z" fill="#E96315"/>
<path d="M38.5077 25.6962V11.0539L33.59 8.21463V22.8565L20.9099 30.1781L25.8275 33.0178L38.5077 25.6962Z" fill="#E96315"/>
</svg>
