<svg width="183" height="32" viewBox="0 0 183 32" fill="none" xmlns="http://www.w3.org/2000/svg">
<path d="M22.9438 0.838629L24.6421 31.0152H18.3716L18.0233 18.0824C17.9942 17.4437 17.9797 16.5728 17.9797 15.4697C17.9797 14.0182 18.0233 12.6015 18.1104 11.2197C18.1975 9.8437 18.2991 8.40091 18.4152 6.89136L15.0187 25.8769H9.61913L5.91782 6.89136C6.23715 10.2298 6.39681 13.2344 6.39681 15.9051L6.35327 18.213L6.13555 31.0152H-0.00427246L1.69397 0.838629H9.05305L12.406 20.3467L15.5848 0.838629H22.9438ZM42.8003 24.4835H33.9607L32.3931 31.0152H24.9034L34.1349 0.838629H42.8003L52.0318 31.0152H44.3679L42.8003 24.4835ZM35.0928 19.3452H41.6246L38.3587 5.97692L35.0928 19.3452ZM52.3366 0.838629H60.044L64.5727 10.5056L69.2233 0.838629H76.7652L68.753 14.6859L77.4968 31.0152H69.798L64.4856 19.5194L59.2602 31.0152H51.6834L60.2182 14.9907L52.3366 0.838629ZM102.361 22.1756C102.361 24.0625 101.867 25.7317 100.88 27.1832C99.8933 28.6347 98.4796 29.7582 96.6391 30.5536C94.7928 31.3548 92.6068 31.7554 90.0812 31.7554C85.0881 31.7554 81.111 30.304 78.1499 27.401L81.7642 23.3948C84.0575 25.4269 86.7718 26.443 89.907 26.443C91.4166 26.443 92.63 26.1149 93.5474 25.4589C94.4589 24.8086 94.9147 23.9029 94.9147 22.7417C94.9147 21.6385 94.5315 20.7734 93.7651 20.1464C92.9929 19.5252 91.5617 18.8952 89.4716 18.2566C85.9299 17.1824 83.4189 15.9196 81.9383 14.4682C80.4578 13.0167 79.7176 11.1442 79.7176 8.85087C79.7176 7.05102 80.2198 5.48341 81.2242 4.14804C82.2228 2.81266 83.5872 1.79662 85.3174 1.0999C87.0418 0.403184 88.9636 0.0548248 91.0828 0.0548248C95.5243 0.0548248 99.124 1.36117 101.882 3.97386L98.5289 7.84934C97.5129 7.00748 96.4184 6.37463 95.2456 5.95079C94.067 5.53276 92.8536 5.32375 91.6053 5.32375C90.2119 5.32375 89.1174 5.57631 88.322 6.08143C87.5208 6.59235 87.1202 7.32681 87.1202 8.28479C87.1202 8.92345 87.3031 9.4605 87.6688 9.89595C88.0288 10.3314 88.6297 10.7378 89.4716 11.1152C90.3135 11.4926 91.5763 11.9426 93.26 12.4651C96.3372 13.3941 98.6247 14.5901 100.123 16.0532C101.615 17.5221 102.361 19.5629 102.361 22.1756ZM120.345 6.32528V31.0152H113.204V6.32528H104.712V0.838629H129.141L128.444 6.32528H120.345ZM147.299 24.4835H138.459L136.892 31.0152H129.402L138.634 0.838629H147.299L156.531 31.0152H148.867L147.299 24.4835ZM139.592 19.3452H146.123L142.858 5.97692L139.592 19.3452ZM180.437 10.0266C180.437 12.0587 179.891 13.7627 178.799 15.1387C177.714 16.5206 176.256 17.5744 174.428 18.3001L182.309 31.0152H174.21L167.678 19.4758H165.675V31.0152H158.534V0.838629H168.026C172.178 0.838629 175.284 1.59341 177.345 3.10296C179.406 4.61251 180.437 6.92039 180.437 10.0266ZM173.078 10.0266C173.078 8.57509 172.662 7.5155 171.832 6.84781C171.008 6.18013 169.739 5.84628 168.026 5.84628H165.675V14.5552H168.331C169.899 14.5552 171.08 14.1924 171.876 13.4666C172.677 12.7409 173.078 11.5942 173.078 10.0266Z" fill="#2C2C35"/>
</svg>
