<svg width="144" height="20" viewBox="0 0 144 20" fill="none" xmlns="http://www.w3.org/2000/svg">
<path d="M137.486 19.3473C133.677 19.3473 130.973 16.4702 130.973 12.7833C130.973 9.09649 133.677 6.21938 137.486 6.21938C141.296 6.21938 144 9.09649 144 12.7833C144 16.4702 141.296 19.3473 137.486 19.3473ZM8.70812 9.50997L5.3899 19.175H4.37162L0 6.44335H1.66789L4.91587 15.9533L8.18142 6.44335H9.23482L12.5179 15.9533L15.7484 6.44335H17.4338L13.0446 19.175H12.0439L8.70812 9.50997ZM19.6811 12.0597H29.5304C29.2319 9.47552 27.3358 7.56318 24.6145 7.56318C21.8932 7.56318 19.9971 9.47552 19.6811 12.0597ZM19.6811 13.438C19.9268 16.0567 21.8405 18.0207 24.6145 18.0207C25.7908 18.0207 26.9144 17.6761 27.88 17.0042C28.2487 16.7458 28.6876 16.3668 28.9334 15.9878L29.0212 15.85H30.7242L30.4784 16.3151C30.18 16.8836 29.6181 17.4694 29.109 17.8829C27.8274 18.9338 26.2648 19.399 24.5969 19.399C20.752 19.399 18.0658 16.5046 18.0658 12.8006C18.0658 9.0965 20.752 6.18493 24.5969 6.18493C26.0541 6.18493 27.4762 6.63286 28.635 7.5115C29.4601 8.14894 30.1097 8.95867 30.5311 9.88899C30.9876 10.9055 31.1807 12.0253 31.128 13.1279L31.1105 13.4208H19.6811V13.438ZM35.0958 12.7833C35.0958 15.6777 37.0271 18.0035 40.0644 18.0035C43.1017 18.0035 45.0505 15.6604 45.0505 12.7833C45.0505 9.90622 43.1192 7.56318 40.0644 7.56318C37.0095 7.56318 35.0958 9.90622 35.0958 12.7833ZM35.0958 16.832V19.175H33.5333V0H35.0958V8.75193C35.289 8.47628 35.5172 8.21786 35.7279 7.99389C36.9042 6.80514 38.3789 6.18493 40.0644 6.18493C43.9093 6.18493 46.5955 9.07927 46.5955 12.7833C46.5955 16.5046 43.8917 19.3817 40.0644 19.3817C38.414 19.3817 36.9568 18.796 35.7805 17.6417C35.5347 17.3833 35.3065 17.1248 35.0958 16.832ZM58.1829 8.08003C59.1309 6.8396 60.5004 6.21938 62.0629 6.21938C63.1865 6.21938 64.2575 6.51226 65.1529 7.18416C66.7681 8.40737 67.2948 10.4575 67.2948 12.3699V19.1405H64.5735V12.6455C64.5735 10.9399 64.1873 8.75193 61.9927 8.75193C59.7981 8.75193 59.4118 10.9227 59.4118 12.6455V19.1405H56.7081V12.6455C56.7081 10.9399 56.3219 8.75193 54.1273 8.75193C51.9327 8.75193 51.5465 10.9227 51.5465 12.6455V19.1405H48.8252V6.42612H51.5465V6.94297C52.3365 6.42612 53.2495 6.20216 54.1975 6.20216C55.7952 6.21938 57.2173 6.80514 58.1829 8.08003ZM104.954 16.8147C105.92 16.8147 107.745 16.6252 107.745 15.3503C107.745 15.1781 107.728 14.9885 107.623 14.8335C107.236 14.1788 105.533 13.9376 104.831 13.8343C102.584 13.5414 99.7922 12.7144 99.7922 9.99236C99.7922 9.45829 99.8976 8.94144 100.126 8.47628C100.986 6.70177 103.11 6.20216 104.936 6.20216C106.411 6.20216 107.939 6.56395 109.01 7.6321C109.677 8.304 109.87 8.8553 110.045 9.59611H107.271C107.201 9.49274 107.078 9.35492 107.026 9.32046C106.481 8.8553 105.656 8.7347 104.954 8.7347C104.111 8.7347 102.514 8.87253 102.514 9.99236C102.514 10.0957 102.531 10.2163 102.584 10.3197C102.882 10.9055 104.497 11.1811 105.094 11.2673C107.552 11.629 110.449 12.3354 110.449 15.3331C110.449 16.0395 110.274 16.7114 109.87 17.3144C108.834 18.8993 106.727 19.3473 104.936 19.3473C103.374 19.3473 101.741 18.9855 100.565 17.8829C100.108 17.4522 99.6518 16.8147 99.4938 16.2117L99.406 15.8327H102.25C102.356 15.9533 102.478 16.0739 102.566 16.1428C103.233 16.6597 104.146 16.8147 104.954 16.8147ZM114.031 6.44335V3.20445H116.752V6.44335H120.334V8.95867H116.752V13.8515C116.752 14.5234 116.752 15.2297 116.875 15.8844C116.91 16.1084 116.998 16.4874 117.191 16.6425C117.349 16.7803 117.665 16.7975 117.876 16.7975C118.315 16.7975 118.753 16.7114 119.192 16.6252L120.351 16.3668V18.8649L119.666 19.0716C119.069 19.2439 118.385 19.3301 117.77 19.3301C116.928 19.3301 116.102 19.1578 115.435 18.6237C114.803 18.1068 114.487 17.4005 114.294 16.6252C114.083 15.7121 114.048 14.7818 114.048 13.8515V8.95867H111.538V6.44335H114.031ZM125.618 6.85683C126.373 6.39167 127.233 6.20216 128.129 6.20216C128.743 6.20216 129.41 6.2883 130.007 6.46058L130.674 6.66732V9.26878L129.463 8.90698C129.042 8.78639 128.568 8.7347 128.129 8.7347C127.549 8.7347 126.988 8.8553 126.566 9.26878C125.741 10.0785 125.653 11.8013 125.653 12.8695V19.1233H122.95V6.42612H125.653V6.85683H125.618ZM79.7074 7.52873V6.44335H82.4111V19.1578H79.7074V18.0552C78.6189 18.9166 77.3197 19.3473 75.8976 19.3473C72.0878 19.3473 69.384 16.4702 69.384 12.7833C69.384 9.09649 72.0878 6.21938 75.8976 6.21938C77.3197 6.21938 78.6189 6.65009 79.7074 7.52873ZM79.7074 12.7833C79.7074 10.5437 78.2677 8.7347 75.8976 8.7347C73.5274 8.7347 72.0878 10.5437 72.0878 12.7661C72.0878 14.9885 73.5274 16.7975 75.8976 16.7975C78.2677 16.7975 79.7074 15.0058 79.7074 12.7833ZM87.4323 14.0065C87.8712 15.7121 89.2407 16.8147 91.0841 16.8147C91.9971 16.8147 92.8573 16.5735 93.5947 16.0395C93.6825 15.9878 93.7703 15.9189 93.8581 15.8327H97.1412L96.9481 16.2117C96.632 16.8147 96.0878 17.3833 95.5611 17.814C94.297 18.8477 92.7345 19.3301 91.0841 19.3301C87.2743 19.3301 84.5706 16.4529 84.5706 12.7661C84.5706 9.07927 87.2743 6.18493 91.0841 6.18493C92.5413 6.18493 93.9459 6.63286 95.1046 7.5115C95.9298 8.14894 96.5794 8.95867 97.0007 9.88899C97.6503 11.3017 97.6328 12.4732 97.5625 13.9721H87.4323V14.0065ZM87.4674 11.474H94.7008C94.2268 9.82008 92.8749 8.75193 91.0841 8.75193C89.2933 8.7347 87.9415 9.82008 87.4674 11.474ZM141.279 12.7833C141.279 10.5609 139.839 8.75193 137.469 8.75193C135.099 8.75193 133.659 10.5609 133.659 12.7833C133.659 15.0058 135.099 16.8147 137.469 16.8147C139.839 16.8147 141.279 15.0058 141.279 12.7833Z" fill="white"/>
</svg>
